<svg width="156" height="52" viewBox="0 0 156 52" fill="none" xmlns="http://www.w3.org/2000/svg">
<rect width="156" height="52" rx="8" fill="#FF6565"/>
<path d="M43.332 20.88C44.516 20.88 45.5507 21.1093 46.436 21.568C47.332 22.016 48.02 22.6667 48.5 23.52C48.9907 24.3627 49.236 25.3493 49.236 26.48C49.236 27.6107 48.9907 28.592 48.5 29.424C48.02 30.256 47.332 30.896 46.436 31.344C45.5507 31.7813 44.516 32 43.332 32H39.7V20.88H43.332ZM43.332 30.512C44.6333 30.512 45.6307 30.16 46.324 29.456C47.0173 28.752 47.364 27.76 47.364 26.48C47.364 25.1893 47.0173 24.1813 46.324 23.456C45.6307 22.7307 44.6333 22.368 43.332 22.368H41.524V30.512H43.332ZM59.1238 27.376C59.1238 27.7067 59.1024 28.0053 59.0598 28.272H52.3238C52.3771 28.976 52.6384 29.5413 53.1078 29.968C53.5771 30.3947 54.1531 30.608 54.8358 30.608C55.8171 30.608 56.5104 30.1973 56.9158 29.376H58.8837C58.6171 30.1867 58.1318 30.8533 57.4278 31.376C56.7344 31.888 55.8704 32.144 54.8358 32.144C53.9931 32.144 53.2358 31.9573 52.5638 31.584C51.9024 31.2 51.3798 30.6667 50.9958 29.984C50.6224 29.2907 50.4358 28.4907 50.4358 27.584C50.4358 26.6773 50.6171 25.8827 50.9798 25.2C51.3531 24.5067 51.8704 23.9733 52.5318 23.6C53.2038 23.2267 53.9718 23.04 54.8358 23.04C55.6678 23.04 56.4091 23.2213 57.0598 23.584C57.7104 23.9467 58.2171 24.4587 58.5798 25.12C58.9424 25.7707 59.1238 26.5227 59.1238 27.376ZM57.2198 26.8C57.2091 26.128 56.9691 25.5893 56.4998 25.184C56.0304 24.7787 55.4491 24.576 54.7558 24.576C54.1264 24.576 53.5878 24.7787 53.1398 25.184C52.6918 25.5787 52.4251 26.1173 52.3398 26.8H57.2198ZM62.7428 20.16V32H60.9188V20.16H62.7428ZM73.2175 27.376C73.2175 27.7067 73.1962 28.0053 73.1535 28.272H66.4175C66.4708 28.976 66.7322 29.5413 67.2015 29.968C67.6708 30.3947 68.2468 30.608 68.9295 30.608C69.9108 30.608 70.6042 30.1973 71.0095 29.376H72.9775C72.7108 30.1867 72.2255 30.8533 71.5215 31.376C70.8282 31.888 69.9642 32.144 68.9295 32.144C68.0868 32.144 67.3295 31.9573 66.6575 31.584C65.9962 31.2 65.4735 30.6667 65.0895 29.984C64.7162 29.2907 64.5295 28.4907 64.5295 27.584C64.5295 26.6773 64.7108 25.8827 65.0735 25.2C65.4468 24.5067 65.9642 23.9733 66.6255 23.6C67.2975 23.2267 68.0655 23.04 68.9295 23.04C69.7615 23.04 70.5028 23.2213 71.1535 23.584C71.8042 23.9467 72.3108 24.4587 72.6735 25.12C73.0362 25.7707 73.2175 26.5227 73.2175 27.376ZM71.3135 26.8C71.3028 26.128 71.0628 25.5893 70.5935 25.184C70.1242 24.7787 69.5428 24.576 68.8495 24.576C68.2202 24.576 67.6815 24.7787 67.2335 25.184C66.7855 25.5787 66.5188 26.1173 66.4335 26.8H71.3135ZM77.1405 24.672V29.552C77.1405 29.8827 77.2152 30.1227 77.3645 30.272C77.5245 30.4107 77.7912 30.48 78.1645 30.48H79.2845V32H77.8445C77.0232 32 76.3938 31.808 75.9565 31.424C75.5192 31.04 75.3005 30.416 75.3005 29.552V24.672H74.2605V23.184H75.3005V20.992H77.1405V23.184H79.2845V24.672H77.1405ZM81.8936 22.016C81.563 22.016 81.2856 21.904 81.0616 21.68C80.8376 21.456 80.7256 21.1787 80.7256 20.848C80.7256 20.5173 80.8376 20.24 81.0616 20.016C81.2856 19.792 81.563 19.68 81.8936 19.68C82.2136 19.68 82.4856 19.792 82.7096 20.016C82.9336 20.24 83.0456 20.5173 83.0456 20.848C83.0456 21.1787 82.9336 21.456 82.7096 21.68C82.4856 21.904 82.2136 22.016 81.8936 22.016ZM82.7896 23.184V32H80.9656V23.184H82.7896ZM89.6324 23.04C90.3257 23.04 90.9444 23.184 91.4884 23.472C92.043 23.76 92.475 24.1867 92.7844 24.752C93.0937 25.3173 93.2484 26 93.2484 26.8V32H91.4404V27.072C91.4404 26.2827 91.243 25.68 90.8484 25.264C90.4537 24.8373 89.915 24.624 89.2324 24.624C88.5497 24.624 88.0057 24.8373 87.6004 25.264C87.2057 25.68 87.0084 26.2827 87.0084 27.072V32H85.1844V23.184H87.0084V24.192C87.307 23.8293 87.6857 23.5467 88.1444 23.344C88.6137 23.1413 89.1097 23.04 89.6324 23.04ZM99.127 23.04C99.8097 23.04 100.412 23.1787 100.935 23.456C101.468 23.7227 101.884 24.0587 102.183 24.464V23.184H104.023V32.144C104.023 32.9547 103.852 33.6747 103.511 34.304C103.17 34.944 102.674 35.4453 102.023 35.808C101.383 36.1707 100.615 36.352 99.719 36.352C98.5243 36.352 97.5323 36.0693 96.743 35.504C95.9537 34.9493 95.5057 34.192 95.399 33.232H97.207C97.3457 33.6907 97.639 34.0587 98.087 34.336C98.5457 34.624 99.0897 34.768 99.719 34.768C100.455 34.768 101.047 34.544 101.495 34.096C101.954 33.648 102.183 32.9973 102.183 32.144V30.672C101.874 31.088 101.452 31.44 100.919 31.728C100.396 32.0053 99.799 32.144 99.127 32.144C98.359 32.144 97.655 31.952 97.015 31.568C96.3857 31.1733 95.8843 30.6293 95.511 29.936C95.1483 29.232 94.967 28.4373 94.967 27.552C94.967 26.6667 95.1483 25.8827 95.511 25.2C95.8843 24.5173 96.3857 23.9893 97.015 23.616C97.655 23.232 98.359 23.04 99.127 23.04ZM102.183 27.584C102.183 26.976 102.055 26.448 101.799 26C101.554 25.552 101.228 25.2107 100.823 24.976C100.418 24.7413 99.9803 24.624 99.511 24.624C99.0417 24.624 98.6043 24.7413 98.199 24.976C97.7937 25.2 97.463 25.536 97.207 25.984C96.9617 26.4213 96.839 26.944 96.839 27.552C96.839 28.16 96.9617 28.6933 97.207 29.152C97.463 29.6107 97.7937 29.9627 98.199 30.208C98.615 30.4427 99.0523 30.56 99.511 30.56C99.9803 30.56 100.418 30.4427 100.823 30.208C101.228 29.9733 101.554 29.632 101.799 29.184C102.055 28.7253 102.183 28.192 102.183 27.584ZM107.155 32.112C106.824 32.112 106.547 32 106.323 31.776C106.099 31.552 105.987 31.2747 105.987 30.944C105.987 30.6133 106.099 30.336 106.323 30.112C106.547 29.888 106.824 29.776 107.155 29.776C107.475 29.776 107.747 29.888 107.971 30.112C108.195 30.336 108.307 30.6133 108.307 30.944C108.307 31.2747 108.195 31.552 107.971 31.776C107.747 32 107.475 32.112 107.155 32.112ZM111.014 32.112C110.683 32.112 110.406 32 110.182 31.776C109.958 31.552 109.846 31.2747 109.846 30.944C109.846 30.6133 109.958 30.336 110.182 30.112C110.406 29.888 110.683 29.776 111.014 29.776C111.334 29.776 111.606 29.888 111.83 30.112C112.054 30.336 112.166 30.6133 112.166 30.944C112.166 31.2747 112.054 31.552 111.83 31.776C111.606 32 111.334 32.112 111.014 32.112ZM114.874 32.112C114.543 32.112 114.266 32 114.042 31.776C113.818 31.552 113.706 31.2747 113.706 30.944C113.706 30.6133 113.818 30.336 114.042 30.112C114.266 29.888 114.543 29.776 114.874 29.776C115.194 29.776 115.466 29.888 115.69 30.112C115.914 30.336 116.026 30.6133 116.026 30.944C116.026 31.2747 115.914 31.552 115.69 31.776C115.466 32 115.194 32.112 114.874 32.112Z" fill="#212121"/>
</svg>
